# Blender 3.3.1
# www.blender.org
mtllib presentBox.mtl
o Cube
v 1.000000 1.000000 -1.000000
v 1.000000 -1.000000 -1.000000
v 1.000000 1.000000 1.000000
v 1.000000 -1.000000 1.000000
v -1.000000 1.000000 -1.000000
v -1.000000 -1.000000 -1.000000
v -1.000000 1.000000 1.000000
v -1.000000 -1.000000 1.000000
v -1.134267 0.763261 1.189777
v -1.134267 1.111850 1.189777
v -1.134267 0.763261 -1.184756
v -1.134267 1.111850 -1.184756
v 1.132032 0.763261 1.189777
v 1.132032 1.111850 1.189777
v 1.132032 0.763261 -1.184756
v 1.132032 1.111850 -1.184756
v -1.134027 1.111849 -0.241342
v -1.134027 1.100286 -0.209283
v -1.134267 1.111849 0.291491
v -1.134267 1.100286 0.291491
v 1.132544 1.111849 -0.209283
v 1.067846 0.925511 -0.209283
v 1.132544 1.111849 0.291491
v 1.067846 0.925511 0.291491
v 1.135655 1.111850 0.291417
v 1.138808 1.111850 0.291417
v 1.005444 -1.000641 0.267168
v 1.009727 -1.000641 0.267168
v 1.135655 1.111850 -0.208826
v 1.138808 1.111850 -0.208826
v 1.005444 -1.000641 -0.168227
v 1.009727 -1.000641 -0.168227
v 0.999484 -1.000000 0.267164
v 0.998666 -1.001419 0.267164
v 0.999484 -1.000000 -0.168555
v 0.998666 -1.001419 -0.168555
v -1.002548 -1.000000 0.282615
v -1.002548 -1.000000 0.282615
v -1.002548 -1.000000 -0.168555
v -1.002548 -1.000000 -0.168555
v -1.003973 -1.000000 -0.167936
v -0.999554 -1.000000 -0.167936
v -1.136900 1.113111 -0.238516
v -1.134945 1.113111 -0.210534
v -1.003973 -1.000000 0.282519
v -0.999554 -1.000000 0.282519
v -1.136900 1.113111 0.293311
v -1.134945 1.113111 0.293311
v 1.151141 0.763257 0.296408
v 1.151510 0.767906 -0.202838
v -1.133966 0.762050 0.306405
v -1.133957 0.761927 -0.247367
v -0.264430 1.118201 -1.183542
v -0.261317 1.105577 -1.183542
v -0.264430 1.118201 1.188976
v -0.256026 1.106998 1.188976
v 0.306361 1.118201 -1.183542
v 0.309474 1.105577 -1.183542
v 0.306361 1.118201 1.188976
v 0.314765 1.106998 1.188976
v 0.228583 -0.999270 -0.998902
v 0.228583 -0.999270 -1.004939
v -0.261409 1.113430 -1.183542
v 0.366688 0.759596 -2.034501
v 0.228583 1.113430 -1.177505
v 0.228583 1.113430 -1.183542
v -0.261409 -0.999270 -0.998902
v -0.261409 -0.999270 -1.004939
v -0.261409 1.113430 -1.177505
v 0.228583 0.760210 -1.183126
v -0.261409 0.756891 -1.189216
v 0.228583 0.760160 -1.189164
v 0.219869 0.761673 -1.000000
v -0.302153 0.758182 -1.000000
v 0.309032 -0.994682 1.006110
v 0.309032 -1.002470 1.006110
v 0.309032 -0.994682 -1.004784
v 0.309032 -1.002470 -1.004784
v -0.262428 -0.994682 1.006110
v -0.262428 -1.002470 1.006110
v -0.262428 -0.994682 -1.004784
v -0.262428 -1.002470 -1.004784
v 0.305650 -0.996355 0.998949
v 0.305651 -0.996355 1.007719
v -0.262094 -0.996355 0.998949
v -0.262094 -0.996355 1.007719
v 0.305650 1.114655 1.189777
v 0.305650 1.114655 1.198547
v -0.262094 1.114655 1.189777
v -0.262094 1.114655 1.198547
v -0.262094 0.766325 1.198547
v 0.305650 0.766519 1.198547
vn -0.0000 1.0000 -0.0000
vn -0.0000 -0.0000 1.0000
vn -1.0000 -0.0000 -0.0000
vn -0.0000 -1.0000 -0.0000
vn 1.0000 -0.0000 -0.0000
vn -0.0000 -0.0000 -1.0000
vn -1.0000 -0.0006 -0.0005
vn 0.9447 -0.3280 -0.0000
vn 0.0008 -0.1602 -0.9871
vn -0.0791 -0.9969 -0.0000
vn 0.2139 -0.0019 -0.9769
vn 0.0151 0.0183 0.9997
vn 0.9981 -0.0615 -0.0000
vn -0.9968 0.0799 -0.0000
vn 0.8663 -0.4996 -0.0000
vn 0.0077 -0.0045 1.0000
vn -0.0007 -1.0000 -0.0000
vn -0.8844 -0.0412 0.4648
vn 0.0001 -1.0000 -0.0000
vn -0.5036 -0.0273 -0.8635
vn 1.0000 0.0084 -0.0000
vn -0.9980 -0.0639 -0.0000
vn -0.9993 -0.0361 -0.0005
vn 0.9973 0.0736 -0.0000
vn -0.9003 -0.4352 0.0011
vn 0.9003 0.4352 -0.0011
vn -0.0000 -1.0000 0.0006
vn 0.0004 -0.1042 -0.9946
vn 0.0361 0.0842 0.9958
vn -0.0000 0.0159 -0.9999
vn -0.0000 0.0900 -0.9959
vn -0.0000 -0.1076 0.9942
vt 0.625000 0.500000
vt 0.375000 0.500000
vt 0.625000 0.750000
vt 0.375000 0.750000
vt 0.875000 0.500000
vt 0.625000 0.250000
vt 0.125000 0.500000
vt 0.375000 0.250000
vt 0.875000 0.750000
vt 0.625000 1.000000
vt 0.625000 0.000000
vt 0.375000 1.000000
vt 0.375000 0.000000
vt 0.125000 0.750000
vt 0.375000 0.000000
vt 0.375000 1.000000
vt 0.125000 0.750000
vt 0.625000 0.000000
vt 0.625000 1.000000
vt 0.875000 0.750000
vt 0.375000 0.250000
vt 0.125000 0.500000
vt 0.625000 0.250000
vt 0.875000 0.500000
vt 0.375000 0.750000
vt 0.625000 0.750000
vt 0.375000 0.500000
vt 0.625000 0.500000
vt 0.375000 0.000000
vt 0.375000 1.000000
vt 0.125000 0.750000
vt 0.625000 0.000000
vt 0.625000 1.000000
vt 0.875000 0.750000
vt 0.375000 0.250000
vt 0.125000 0.500000
vt 0.625000 0.250000
vt 0.875000 0.500000
vt 0.375000 0.750000
vt 0.625000 0.750000
vt 0.375000 0.500000
vt 0.625000 0.500000
vt 0.375000 0.000000
vt 0.375000 1.000000
vt 0.125000 0.750000
vt 0.625000 0.000000
vt 0.625000 1.000000
vt 0.875000 0.750000
vt 0.375000 0.250000
vt 0.125000 0.500000
vt 0.625000 0.250000
vt 0.875000 0.500000
vt 0.375000 0.750000
vt 0.625000 0.750000
vt 0.375000 0.500000
vt 0.625000 0.500000
vt 0.375000 0.000000
vt 0.375000 1.000000
vt 0.125000 0.750000
vt 0.625000 0.000000
vt 0.625000 1.000000
vt 0.875000 0.750000
vt 0.375000 0.250000
vt 0.125000 0.500000
vt 0.625000 0.250000
vt 0.875000 0.500000
vt 0.375000 0.750000
vt 0.625000 0.750000
vt 0.375000 0.500000
vt 0.625000 0.500000
vt 0.375000 0.000000
vt 0.375000 1.000000
vt 0.125000 0.750000
vt 0.625000 0.000000
vt 0.625000 1.000000
vt 0.875000 0.750000
vt 0.375000 0.250000
vt 0.125000 0.500000
vt 0.625000 0.250000
vt 0.875000 0.500000
vt 0.375000 0.750000
vt 0.625000 0.750000
vt 0.375000 0.500000
vt 0.625000 0.500000
vt 0.625000 0.040959
vt 0.875000 0.709041
vt 0.625000 0.709588
vt 0.375000 0.541534
vt 0.375000 0.208452
vt 0.125000 0.541548
vt 0.375000 0.000000
vt 0.375000 1.000000
vt 0.125000 0.750000
vt 0.625000 0.000000
vt 0.625000 1.000000
vt 0.875000 0.750000
vt 0.375000 0.250000
vt 0.125000 0.500000
vt 0.625000 0.250000
vt 0.875000 0.500000
vt 0.375000 0.750000
vt 0.625000 0.750000
vt 0.375000 0.500000
vt 0.625000 0.500000
vt 0.625000 0.750000
vt 0.375000 0.750000
vt 0.625000 0.250000
vt 0.375000 0.500000
vt 0.375000 0.750000
vt 0.375000 0.250000
vt 0.375000 0.750000
vt 0.625000 0.500000
vt 0.625000 0.250000
vt 0.625000 0.000000
vt 0.125000 0.750000
vt 0.875000 0.750000
vt 0.375000 0.000000
vt 0.625000 0.750000
vt 0.625000 0.500000
vt 0.625000 0.500000
vt 0.625000 1.000000
vt 0.375000 0.500000
vt 0.375000 0.250000
vt 0.375000 0.500000
vt 0.375000 1.000000
vt 0.625000 0.750000
vt 0.125000 0.500000
vt 0.875000 0.500000
vt 0.166011 0.750000
vt 0.625000 0.041011
vt 0.375000 0.708604
vt 0.583604 0.250000
vt 0.375000 0.041017
vt 0.583983 0.500000
vt 0.595209 0.402484
vt 0.594773 0.337231
vt 0.375000 0.000000
vt 0.375000 1.000000
vt 0.125000 0.750000
vt 0.625000 0.000000
vt 0.625000 1.000000
vt 0.875000 0.750000
vt 0.375000 0.250000
vt 0.125000 0.500000
vt 0.625000 0.250000
vt 0.875000 0.500000
vt 0.375000 0.750000
vt 0.625000 0.750000
vt 0.375000 0.500000
vt 0.625000 0.500000
vt 0.375000 0.000000
vt 0.375000 1.000000
vt 0.125000 0.750000
vt 0.625000 0.000000
vt 0.625000 1.000000
vt 0.875000 0.750000
vt 0.375000 0.250000
vt 0.125000 0.500000
vt 0.625000 0.250000
vt 0.875000 0.500000
vt 0.375000 0.750000
vt 0.625000 0.750000
vt 0.375000 0.500000
vt 0.625000 0.500000
vt 0.625000 0.456917
vt 0.668083 0.500000
vt 0.625000 0.793059
vt 0.668059 0.750000
s 0
usemtl Material
f 1/1/1 5/5/1 7/9/1 3/3/1
f 4/4/2 3/3/2 7/10/2 8/12/2
f 8/13/3 7/11/3 5/6/3 6/8/3
f 6/7/4 2/2/4 4/4/4 8/14/4
f 2/2/5 1/1/5 3/3/5 4/4/5
f 6/8/6 5/6/6 74/136/6 73/135/6 1/1/6 2/2/6
f 9/15/3 10/18/3 12/23/3 11/21/3
f 11/21/6 12/23/6 16/28/6 15/27/6
f 15/27/5 16/28/5 14/26/5 13/25/5
f 13/25/2 14/26/2 10/19/2 9/16/2
f 11/22/4 15/27/4 13/25/4 9/17/4
f 16/28/1 12/24/1 10/20/1 14/26/1
f 17/29/7 18/32/7 20/37/7 19/35/7
f 19/35/2 20/37/2 24/42/2 23/41/2
f 23/41/8 24/42/8 22/40/8 21/39/8
f 21/39/9 22/40/9 18/33/9 17/30/9
f 19/36/1 23/41/1 21/39/1 17/31/1
f 24/42/10 20/38/10 18/34/10 22/40/10
f 25/43/11 26/46/11 49/85/11 28/51/11 27/49/11
f 27/49/1 28/51/1 32/56/1 31/55/1
f 31/55/12 32/56/12 50/87/12 30/54/12 29/53/12
f 29/53/4 30/54/4 26/47/4 25/44/4
f 27/50/13 31/55/13 29/53/13 25/45/13
f 32/56/14 28/52/14 49/86/14 50/87/14
f 33/57/15 34/60/15 36/65/15 35/63/15
f 35/63/6 36/65/6 40/70/6 39/69/6
f 39/69/1 40/70/1 38/68/1 37/67/1
f 37/67/16 38/68/16 34/61/16 33/58/16
f 35/64/1 39/69/1 37/67/1 33/59/1
f 40/70/17 36/66/17 34/62/17 38/68/17
f 41/71/18 42/74/18 44/79/18 43/77/18 52/89/18
f 43/77/19 44/79/19 48/84/19 47/83/19
f 47/83/20 48/84/20 46/82/20 45/81/20 51/88/20
f 45/81/1 46/82/1 42/75/1 41/72/1
f 43/78/21 47/83/21 51/88/21 52/90/21
f 48/84/22 44/80/22 42/76/22 46/82/22
f 50/87/23 49/86/23 26/48/23 30/54/23
f 52/90/24 51/88/24 45/81/24 41/73/24
f 53/91/25 54/94/25 56/99/25 55/97/25
f 55/97/2 56/99/2 60/104/2 59/103/2
f 59/103/26 60/104/26 58/102/26 57/101/26
f 57/101/6 58/102/6 54/95/6 53/92/6
f 55/98/1 59/103/1 57/101/1 53/93/1
f 60/104/27 56/100/27 54/96/27 58/102/27
f 66/117/5 65/114/5 70/130/5 72/133/5
f 68/123/28 71/132/28 72/134/28 62/108/28
f 68/124/3 67/120/3 69/126/3 63/111/3 71/131/3
f 62/109/4 61/105/4 67/121/4 68/125/4
f 69/127/29 67/122/29 61/106/29 70/129/29 65/115/29
f 63/112/1 69/128/1 65/116/1 66/118/1
f 75/137/5 76/140/5 78/145/5 77/143/5
f 72/133/5 70/130/5 61/107/5 62/110/5
f 72/134/30 71/132/30 63/113/30 66/119/30
f 1/1/6 73/135/6 74/136/6 5/6/6
f 77/143/6 78/145/6 82/150/6 81/149/6
f 81/149/3 82/150/3 80/148/3 79/147/3
f 79/147/2 80/148/2 76/141/2 75/138/2
f 77/144/1 81/149/1 79/147/1 75/139/1
f 82/150/4 78/146/4 76/142/4 80/148/4
f 83/151/4 84/154/4 86/159/4 85/157/4
f 85/157/3 86/159/3 91/165/3 90/164/3 89/163/3
f 89/163/1 90/164/1 88/162/1 87/161/1
f 87/161/5 88/162/5 92/167/5 84/155/5 83/152/5
f 85/158/31 89/163/31 87/161/31 83/153/31
f 90/164/2 91/166/2 92/168/2 88/162/2
f 92/168/32 91/166/32 86/160/32 84/156/32
